<svg xmlns="http://www.w3.org/2000/svg" xmlns:xlink="http://www.w3.org/1999/xlink" viewBox="0 0 430 430" width="430" height="430" preserveAspectRatio="xMidYMid meet" style="width: 100%; height: 100%; transform: translate3d(0px, 0px, 0px); content-visibility: visible;"><defs><clipPath id="__lottie_element_2"><rect width="430" height="430" x="0" y="0"/></clipPath><clipPath id="__lottie_element_4"><path d="M0,0 L430,0 L430,430 L0,430z"/></clipPath></defs><g clip-path="url(#__lottie_element_2)"><g clip-path="url(#__lottie_element_4)" transform="matrix(1,0,0,1,0,0)" opacity="1" style="display: block;"><g transform="matrix(1,0,0,1,215,342.5)" opacity="1" style="display: block;"><g opacity="1" transform="matrix(1,0,0,1,0,0)"><path stroke-linecap="butt" stroke-linejoin="round" fill-opacity="0" class="primary" stroke="rgb(18,19,49)" stroke-opacity="1" stroke-width="18" d=" M-20,-57.5 C-20,-57.5 -20,57.5 -20,57.5 C-20,57.5 20,57.5 20,57.5 C20,57.5 20,-57.5 20,-57.5 C20,-57.5 -20,-57.5 -20,-57.5z"/></g></g><g transform="matrix(1,0,0,1,215,172.0709991455078)" opacity="1" style="display: block;"><g opacity="1" transform="matrix(0,1,-1,0,0,0)"><path stroke-linecap="butt" stroke-linejoin="round" fill-opacity="0" class="primary" stroke="rgb(18,19,49)" stroke-opacity="1" stroke-width="18" d=" M-3.9089999198913574,-158.16200256347656 C-3.9089999198913574,-158.16200256347656 -3.9089999198913574,-48.284000396728516 -3.9089999198913574,-48.284000396728516 C-3.9089999198913574,-48.284000396728516 -81.60399627685547,-125.9800033569336 -81.60399627685547,-125.9800033569336 C-81.60399627685547,-125.9800033569336 -109.88800048828125,-97.69499969482422 -109.88800048828125,-97.69499969482422 C-109.88800048828125,-97.69499969482422 -32.19300079345703,-20 -32.19300079345703,-20 C-32.19300079345703,-20 -142.0709991455078,-20 -142.0709991455078,-20 C-142.0709991455078,-20 -142.0709991455078,20 -142.0709991455078,20 C-142.0709991455078,20 -32.19300079345703,20 -32.19300079345703,20 C-32.19300079345703,20 -109.88800048828125,97.69599914550781 -109.88800048828125,97.69599914550781 C-109.88800048828125,97.69599914550781 -81.60399627685547,125.9800033569336 -81.60399627685547,125.9800033569336 C-81.60399627685547,125.9800033569336 -3.9089999198913574,48.28499984741211 -3.9089999198913574,48.28499984741211 C-3.9089999198913574,48.28499984741211 -3.9089999198913574,158.16200256347656 -3.9089999198913574,158.16200256347656 C-3.9089999198913574,158.16200256347656 36.090999603271484,158.16200256347656 36.090999603271484,158.16200256347656 C36.090999603271484,158.16200256347656 36.090999603271484,48.284000396728516 36.090999603271484,48.284000396728516 C36.090999603271484,48.284000396728516 113.78700256347656,125.9800033569336 113.78700256347656,125.9800033569336 C113.78700256347656,125.9800033569336 142.0709991455078,97.69599914550781 142.0709991455078,97.69599914550781 C142.0709991455078,97.69599914550781 55.50199890136719,11.12600040435791 55.50199890136719,11.12600040435791 C55.50199890136719,11.12600040435791 55.382999420166016,11.008000373840332 55.382999420166016,11.008000373840332 C55.382999420166016,11.008000373840332 44.375999450683594,0 44.375999450683594,0 C44.375999450683594,0 56.270999908447266,-11.895999908447266 56.270999908447266,-11.895999908447266 C56.270999908447266,-11.895999908447266 56.51499938964844,-12.138999938964844 56.51499938964844,-12.138999938964844 C56.51499938964844,-12.138999938964844 142.0709991455078,-97.69499969482422 142.0709991455078,-97.69499969482422 C142.0709991455078,-97.69499969482422 113.78700256347656,-125.9800033569336 113.78700256347656,-125.9800033569336 C113.78700256347656,-125.9800033569336 36.090999603271484,-48.284000396728516 36.090999603271484,-48.284000396728516 C36.090999603271484,-48.284000396728516 36.090999603271484,-158.16200256347656 36.090999603271484,-158.16200256347656 C36.090999603271484,-158.16200256347656 -3.9089999198913574,-158.16200256347656 -3.9089999198913574,-158.16200256347656z"/></g></g><g transform="matrix(1,0,0,1,215,172.0709991455078)" opacity="1" style="display: none;"><g opacity="1" transform="matrix(0,1,-1,0,0,0)"><path stroke-linecap="butt" stroke-linejoin="round" fill-opacity="0" class="primary" stroke="rgb(18,19,49)" stroke-opacity="1" stroke-width="12" d=" M-3.9089999198913574,-158.16200256347656 C-3.9089999198913574,-158.16200256347656 -3.9089999198913574,-48.284000396728516 -3.9089999198913574,-48.284000396728516 C-3.9089999198913574,-48.284000396728516 -81.60399627685547,-125.9800033569336 -81.60399627685547,-125.9800033569336 C-81.60399627685547,-125.9800033569336 -109.88800048828125,-97.69499969482422 -109.88800048828125,-97.69499969482422 C-109.88800048828125,-97.69499969482422 -32.19300079345703,-20 -32.19300079345703,-20 C-32.19300079345703,-20 -142.0709991455078,-20 -142.0709991455078,-20 C-142.0709991455078,-20 -142.0709991455078,20 -142.0709991455078,20 C-142.0709991455078,20 -32.19300079345703,20 -32.19300079345703,20 C-32.19300079345703,20 -109.88800048828125,97.69599914550781 -109.88800048828125,97.69599914550781 C-109.88800048828125,97.69599914550781 -81.60399627685547,125.9800033569336 -81.60399627685547,125.9800033569336 C-81.60399627685547,125.9800033569336 -3.9089999198913574,48.28499984741211 -3.9089999198913574,48.28499984741211 C-3.9089999198913574,48.28499984741211 -3.9089999198913574,158.16200256347656 -3.9089999198913574,158.16200256347656 C-3.9089999198913574,158.16200256347656 36.090999603271484,158.16200256347656 36.090999603271484,158.16200256347656 C36.090999603271484,158.16200256347656 36.090999603271484,48.284000396728516 36.090999603271484,48.284000396728516 C36.090999603271484,48.284000396728516 113.78700256347656,125.9800033569336 113.78700256347656,125.9800033569336 C113.78700256347656,125.9800033569336 142.0709991455078,97.69599914550781 142.0709991455078,97.69599914550781 C142.0709991455078,97.69599914550781 55.50199890136719,11.12600040435791 55.50199890136719,11.12600040435791 C55.50199890136719,11.12600040435791 55.382999420166016,11.008000373840332 55.382999420166016,11.008000373840332 C55.382999420166016,11.008000373840332 44.375999450683594,0 44.375999450683594,0 C44.375999450683594,0 56.270999908447266,-11.895999908447266 56.270999908447266,-11.895999908447266 C56.270999908447266,-11.895999908447266 56.51499938964844,-12.138999938964844 56.51499938964844,-12.138999938964844 C56.51499938964844,-12.138999938964844 142.0709991455078,-97.69499969482422 142.0709991455078,-97.69499969482422 C142.0709991455078,-97.69499969482422 113.78700256347656,-125.9800033569336 113.78700256347656,-125.9800033569336 C113.78700256347656,-125.9800033569336 36.090999603271484,-48.284000396728516 36.090999603271484,-48.284000396728516 C36.090999603271484,-48.284000396728516 36.090999603271484,-158.16200256347656 36.090999603271484,-158.16200256347656 C36.090999603271484,-158.16200256347656 -3.9089999198913574,-158.16200256347656 -3.9089999198913574,-158.16200256347656z"/></g></g></g></g></svg>